<svg width="70" height="50" viewBox="0 0 70 50" fill="none" xmlns="http://www.w3.org/2000/svg">
<rect width="70" height="50" rx="6.63158" fill="#007ECD"/>
<path fill-rule="evenodd" clip-rule="evenodd" d="M61.4906 33.9775H58.4176V32.4299H61.0996C61.0996 32.4299 62.0775 32.5436 62.0775 31.8977C62.0775 31.2922 60.6155 31.3393 60.6155 31.3393C60.6155 31.3393 58.2329 31.5443 58.2329 29.3376C58.2329 27.1426 60.3853 27.2679 60.3853 27.2679H63.6908V28.8372H61.0303C61.0303 28.8372 60.109 28.654 60.109 29.3159C60.109 29.8707 61.364 29.7917 61.364 29.7917C61.364 29.7917 63.9999 29.5991 63.9999 31.6232C63.9999 33.7929 62.3017 33.9862 61.6992 33.9862C61.5696 33.9862 61.4906 33.9775 61.4906 33.9775ZM46.159 33.9884V27.2795H51.5446V28.8372H47.8958V29.8707H51.4537V31.3958H47.8958V32.5342H51.5446V33.9884H46.159ZM55.4019 33.9775H52.3281V32.4299H55.0221C55.0221 32.4299 55.9888 32.5436 55.9888 31.8977C55.9888 31.2922 54.5268 31.3393 54.5268 31.3393C54.5268 31.3393 52.1442 31.5443 52.1442 29.3376C52.1442 27.1426 54.2966 27.2679 54.2966 27.2679H57.6132V28.8372H54.9424C54.9424 28.8372 54.0203 28.654 54.0203 29.3159C54.0203 29.8707 55.2738 29.7917 55.2738 29.7917C55.2738 29.7917 57.9111 29.5991 57.9111 31.6232C57.9111 33.7929 56.213 33.9862 55.6105 33.9862C55.4801 33.9862 55.4019 33.9775 55.4019 33.9775ZM32.1151 33.9891H30.6076L28.7769 31.9976L26.9357 33.9891H25.8878H20.5126V27.257H25.8878H26.7972L28.7769 29.3949L30.7685 27.2686H32.0927V27.257H36.2822C36.2822 27.257 38.4697 27.0181 38.4697 29.2341C38.4697 31.2133 37.7428 31.8281 35.5113 31.8281H33.8192V33.9891H32.1151ZM29.9514 30.681L32.0927 33.0223V28.3484L29.9514 30.681ZM22.251 32.5335H25.8878L27.5919 30.681L25.8878 28.838H22.251V29.8714H25.7962V31.3965H22.251V32.5335ZM33.8192 30.0756H35.6029C36.1213 30.0756 36.5474 29.7917 36.5474 29.439C36.5474 29.0878 36.1213 28.8025 35.6029 28.8025H33.8192V30.0756ZM43.6267 34V32.6921C43.6267 32.6921 43.5559 31.6688 42.4737 31.6688H40.7949V34H39.067V27.2795H43.258C43.258 27.2795 45.4447 27.0181 45.4447 29.2464C45.4447 30.4066 44.478 30.8157 44.478 30.8157C44.478 30.8157 45.3069 31.2024 45.3069 32.3387V34H43.6267ZM40.7949 30.0879H42.5787C43.0971 30.0879 43.5224 29.804 43.5224 29.4513C43.5224 29.0987 43.0971 28.8148 42.5787 28.8148H40.7949V30.0879ZM39.4938 24.8006H41.2306V18.0584H39.4938V24.8006ZM26.1179 24.7774V18.0576H31.5051V19.6262H27.8563V20.6611H31.4135V22.1848H27.8563V23.3232H31.5051V24.7774H26.1179ZM23.4128 24.7781V20.1382L21.2492 24.7781H19.8333L17.6578 20.1607V24.7781H16.1496H15.9194H14.2503L13.6515 23.3681H10.4981L9.88806 24.7781H8L10.866 18.0569H13.2948L15.9194 24.2321V18.0569H18.6476L20.5469 22.2304L22.4342 18.0569H25.1624V24.7781H23.4128ZM11.2347 21.6504H12.9149L12.0748 19.6494L11.2347 21.6504ZM57.3347 24.7781L54.5968 20.286V24.7781H53.1117H52.8338H51.2124L50.6024 23.3681H47.4482L46.8486 24.7781H45.26H44.9725H44.1435C44.1435 24.7781 41.8198 24.4479 41.8198 21.6055C41.8198 17.8751 44.4556 18.0229 44.5465 18.0004L46.6759 18.0569V19.5698L44.9278 19.5922C44.9278 19.5922 43.7875 19.5922 43.6483 21.0594C43.6334 21.2289 43.6252 21.3824 43.6267 21.5265C43.6334 23.7983 45.622 23.0937 45.6875 23.0719L47.8281 18.0569H50.2442L52.8338 24.1524V18.0569H55.2745L57.9797 22.481V18.0569H59.7188V24.7781H57.3347ZM48.1848 21.6504H49.8658L49.0369 19.6494L48.1848 21.6504ZM36.9607 24.7781V23.4702C36.9607 23.4702 36.8922 22.447 35.81 22.447H34.1297V24.7781H32.4026V18.0569H36.5928C36.5928 18.0569 38.7795 17.7955 38.7795 20.0245C38.7795 21.1847 37.8128 21.5939 37.8128 21.5939C37.8128 21.5939 38.6529 21.9806 38.6529 23.1176V24.7781H36.9607ZM34.1297 20.8661H35.9135C36.4319 20.8661 36.8572 20.5814 36.8572 20.2288C36.8572 19.8768 36.4319 19.5922 35.9135 19.5922H34.1297V20.8661Z" fill="white"/>
</svg>
