<svg width="70" height="50" viewBox="0 0 70 50" fill="none" xmlns="http://www.w3.org/2000/svg">
<rect width="70" height="50" rx="6.63158" fill="#353A48"/>
<g clip-path="url(#clip0_0_53)">
<path fill-rule="evenodd" clip-rule="evenodd" d="M35.3684 35.7618C32.988 37.8184 29.9003 39.0599 26.5263 39.0599C18.9978 39.0599 12.8947 32.8787 12.8947 25.2539C12.8947 17.6291 18.9978 11.4479 26.5263 11.4479C29.9003 11.4479 32.988 12.6894 35.3684 14.746C37.7488 12.6894 40.8365 11.4479 44.2105 11.4479C51.739 11.4479 57.8421 17.6291 57.8421 25.2539C57.8421 32.8787 51.739 39.0599 44.2105 39.0599C40.8365 39.0599 37.7488 37.8184 35.3684 35.7618Z" fill="#FF5E00"/>
<path fill-rule="evenodd" clip-rule="evenodd" d="M35.3684 14.746C32.4374 17.2783 30.5789 21.0463 30.5789 25.2539C30.5789 29.4615 32.4374 33.2295 35.3684 35.7618C32.988 37.8184 29.9003 39.0599 26.5263 39.0599C18.9978 39.0599 12.8947 32.8787 12.8947 25.2539C12.8947 17.6291 18.9978 11.4479 26.5263 11.4479C29.9003 11.4479 32.988 12.6894 35.3684 14.746Z" fill="#ED0006"/>
<path fill-rule="evenodd" clip-rule="evenodd" d="M35.3684 35.7618C38.2994 33.2295 40.1579 29.4615 40.1579 25.2539C40.1579 21.0463 38.2994 17.2783 35.3684 14.746C37.7488 12.6894 40.8365 11.4479 44.2105 11.4479C51.739 11.4479 57.8421 17.6291 57.8421 25.2539C57.8421 32.8787 51.739 39.0599 44.2105 39.0599C40.8365 39.0599 37.7488 37.8184 35.3684 35.7618Z" fill="#F9A000"/>
</g>
<defs>
<clipPath id="clip0_0_53">
<rect width="46" height="28" fill="white" transform="translate(12.5263 11.194)"/>
</clipPath>
</defs>
</svg>
