<svg width="70" height="50" viewBox="0 0 70 50" fill="none" xmlns="http://www.w3.org/2000/svg">
<rect width="70" height="50" rx="6.63158" fill="#224DBA"/>
<path fill-rule="evenodd" clip-rule="evenodd" d="M23.7505 32.8832H19.6829L16.6328 21.2466C16.488 20.7113 16.1806 20.2381 15.7284 20.0151C14.6 19.4546 13.3565 19.0085 12 18.7835V18.3355H18.5525C19.4569 18.3355 20.1351 19.0085 20.2482 19.7901L21.8308 28.1839L25.8963 18.3355H29.8508L23.7505 32.8832ZM32.1117 32.8832H28.2702L31.4334 18.3355H35.2749L32.1117 32.8832ZM40.2448 22.3657C40.3579 21.5821 41.0361 21.1341 41.8274 21.1341C43.0709 21.0216 44.4254 21.2466 45.5558 21.8052L46.2341 18.673C45.1037 18.225 43.8602 18 42.7318 18C39.0033 18 36.2903 20.0151 36.2903 22.8117C36.2903 24.9393 38.212 26.0564 39.5685 26.7294C41.0361 27.4004 41.6013 27.8484 41.4883 28.5195C41.4883 29.526 40.3579 29.974 39.2294 29.974C37.8729 29.974 36.5164 29.6385 35.2749 29.078L34.5966 32.2121C35.9532 32.7707 37.4207 32.9957 38.7772 32.9957C42.9578 33.1062 45.5558 31.0931 45.5558 28.0715C45.5558 24.2663 40.2448 24.0433 40.2448 22.3657ZM59 32.8832L55.9498 18.3355H52.6736C51.9953 18.3355 51.3171 18.7835 51.091 19.4546L45.4428 32.8832H49.3973L50.1866 30.7576H55.0455L55.4977 32.8832H59ZM53.2388 22.2532L54.3672 27.7359H51.204L53.2388 22.2532Z" fill="white"/>
</svg>
